# xmcd
#
# Track frame offsets: 
#        150
#        14087
#        25730
#        38112
#        49860
#        60105
#        71812
#        82605
#        95380
#        105535
#        117955
#        128192
#        141520
#        151275
#        164147
#        174137
#        187550
#        201415
#        212550
#        222040
#        234255
#        248050
#        265000
#        277180
#        289275
#
# Disc length: 3994 seconds
#
# Revision: 2
# Processed by: cddbd v1.4PL0 Copyright (c) Steve Scherf et al.
# Submitted via: ExactAudioCopy v0.90b4
#
DISCID=5e0f9819
DTITLE=Patsy Cline - Patsy Cline: Legendary Country Singers
DYEAR=1995
DGENRE=Country
TTITLE0=A Church, a Courtroom and Then Goodbye
TTITLE1=I've Loved and Lost Again
TTITLE2=A Poor Man's Roses ( Or a Rich Man's Gold)
TTITLE3=Walkin' After Midnight
TTITLE4=Three Cigarettes in an Ashtray
TTITLE5=In Care of the Blues
TTITLE6=Gotta Lot of Rhythm in My Soul
TTITLE7=Just a Closer Walk with Thee
TTITLE8=I Love You So Much It Hurts
TTITLE9=Crazy
TTITLE10=Strange
TTITLE11=Imagine That
TTITLE12=True Love
TTITLE13=I Fall to Pieces
TTITLE14=Lovin' in Vain
TTITLE15=I Can't Help It (If I'm Still in Love  with You)
TTITLE16=So Wrong
TTITLE17=Leavin' on Your Mind
TTITLE18=Back in Baby's Arms
TTITLE19=Always
TTITLE20=She's Got You
TTITLE21=Faded Love
TTITLE22=He Called Me Baby
TTITLE23=Sweet Dreams of You
TTITLE24=There He Goes
EXTD=
EXTT0=Patsy Cline
EXTT1=Patsy Cline
EXTT2=Patsy Cline
EXTT3=Patsy Cline
EXTT4=Patsy Cline
EXTT5=Patsy Cline
EXTT6=Patsy Cline
EXTT7=Patsy Cline
EXTT8=Patsy Cline
EXTT9=Patsy Cline
EXTT10=Patsy Cline
EXTT11=Patsy Cline
EXTT12=Patsy Cline
EXTT13=Patsy Cline
EXTT14=Patsy Cline
EXTT15=Patsy Cline
EXTT16=Patsy Cline
EXTT17=Patsy Cline
EXTT18=Patsy Cline
EXTT19=Patsy Cline
EXTT20=Patsy Cline
EXTT21=Patsy Cline
EXTT22=Patsy Cline
EXTT23=Patsy Cline
EXTT24=Patsy Cline
PLAYORDER=
